<?xml version="1.0" encoding="UTF-8" standalone="no"?>
<!DOCTYPE svg PUBLIC "-//W3C//DTD SVG 1.1//EN" "http://www.w3.org/Graphics/SVG/1.1/DTD/svg11.dtd">
<svg version="1.1" xmlns="http://www.w3.org/2000/svg" xmlns:xlink="http://www.w3.org/1999/xlink" preserveAspectRatio="xMidYMid meet" viewBox="0 0 2500 2500" width="2500" height="2500"><defs><path d="M0 0L2500 0L2500 2500L0 2500L0 0Z" id="cu7R2y6ux"></path><path d="M1715.12 1297.37L1715.12 953.05L1523.12 953.05L1523.12 1297.37L1619.12 1429.21L1715.12 1297.37ZM1523.12 1888.72L1523.12 2233.04L1715.12 2233.04L1715.12 1888.72L1619.12 1756.88L1523.12 1888.72Z" id="dnnUivcJu"></path><path d="M1715.12 1888.72L1917.36 2167.76L2073.52 2053.84L1870 1776.08L1715.12 1724.88L1715.12 1888.72ZM1523.12 1297.37L1320.88 1018.33L1164.72 1132.25L1368.24 1410.01L1523.12 1461.21L1523.12 1297.37Z" id="a5swqFm7d"></path><path d="M1368.24 1410.01L1040.57 1303.77L980.41 1486.81L1308.08 1593.05L1464.24 1543.13L1368.24 1410.01ZM1774 1642.96L1870 1776.08L2197.68 1882.32L2257.84 1699.28L1930.16 1593.05L1774 1642.96Z" id="c18LzfeV6K"></path><path d="M1930.16 1593.05L2257.84 1486.81L2197.68 1303.77L1870 1410.01L1774 1543.13L1930.16 1593.05ZM1308.08 1593.05L980.41 1699.28L1040.57 1882.32L1368.24 1776.08L1464.24 1642.96L1308.08 1593.05Z" id="c1bkPrkdQK"></path><path d="M1368.24 1776.08L1164.72 2053.84L1320.88 2167.76L1523.12 1888.72L1523.12 1724.88L1368.24 1776.08ZM1870 1410.01L2073.52 1132.25L1917.36 1018.33L1715.12 1297.37L1715.12 1461.21L1870 1410.01Z" id="f76MDlA5J"></path><path d="M1151.11 542.91L1261.58 514.47L1262.4 515.68L1265.19 1182.72L1261.58 1186.34L1238.82 1187.32L1152.4 1173.87L1151.11 1170.46L1151.11 542.91M512.19 1232.68L512.59 1232.71L804.21 1317.45L804.95 1318.02L806.22 1319.03L805.81 1572.94L804.95 1574.02L512.19 1431.8L512.19 1232.68" id="bZ9xufbJ"></path><path d="M1151.11 1170.46L805.43 1253.25L631.87 1211.35L512.19 1232.68L804.95 1318.02L1256.79 1195.69L1261.58 1186.34L1151.11 1170.46" id="b12gccaNUf"></path><path d="M1097.71 635.36L1094.89 632.14L808.09 548.81L804.95 550.02L802.07 548.55L350.78 678.69L348.32 681.7L351.94 683.68L455.14 698.82L458.79 697.58L804.47 614.8L978.03 656.69L1097.71 635.36" id="d2OcFu2GiV"></path><path d="M458.79 1325.13L348.32 1351.8L348.12 1351.16L343.77 686.61L348.32 681.7L458.79 697.58L458.79 1325.13" id="c1mr9PmaF0"></path><path d="M607.93 1067.35L804.95 1090.46L806.43 1088.26L807.23 780.1L804.95 777.57L607.93 800.69L607.93 1067.35" id="bSkJu1Gwb"></path><path d="M1001.96 1067.35L804.95 1090.46L804.95 777.57L1001.96 800.69L1001.96 1067.35M1097.71 635.36L804.95 550.02L804.95 294.02L1097.71 436.24L1097.71 635.36" id="aG1TfPwUb"></path><path d="M804.95 294.02L256.25 558.91L256.25 1309.13L348.32 1351.8L348.32 681.7L804.95 550.02L804.95 294.02" id="b147TQRfNH"></path><path d="M1261.58 514.47L1261.58 1186.34L804.95 1318.02L804.95 1574.02L1353.65 1309.13L1353.65 558.91L1261.58 514.47" id="fk09e2vlo"></path></defs><g><g><g><use xlink:href="#cu7R2y6ux" opacity="1" fill="#000000" fill-opacity="1"></use><g><use xlink:href="#cu7R2y6ux" opacity="1" fill-opacity="0" stroke="#000000" stroke-width="1" stroke-opacity="0"></use></g></g><g><use xlink:href="#dnnUivcJu" opacity="1" fill="#ffffff" fill-opacity="1"></use><g><use xlink:href="#dnnUivcJu" opacity="1" fill-opacity="0" stroke="#000000" stroke-width="1" stroke-opacity="0"></use></g></g><g><use xlink:href="#a5swqFm7d" opacity="1" fill="#00f2e6" fill-opacity="1"></use><g><use xlink:href="#a5swqFm7d" opacity="1" fill-opacity="0" stroke="#000000" stroke-width="1" stroke-opacity="0"></use></g></g><g><use xlink:href="#c18LzfeV6K" opacity="1" fill="#00b9f1" fill-opacity="1"></use><g><use xlink:href="#c18LzfeV6K" opacity="1" fill-opacity="0" stroke="#000000" stroke-width="1" stroke-opacity="0"></use></g></g><g><use xlink:href="#c1bkPrkdQK" opacity="1" fill="#d63aff" fill-opacity="1"></use><g><use xlink:href="#c1bkPrkdQK" opacity="1" fill-opacity="0" stroke="#000000" stroke-width="1" stroke-opacity="0"></use></g></g><g><use xlink:href="#f76MDlA5J" opacity="1" fill="#fb015b" fill-opacity="1"></use><g><use xlink:href="#f76MDlA5J" opacity="1" fill-opacity="0" stroke="#000000" stroke-width="1" stroke-opacity="0"></use></g></g><g><use xlink:href="#bZ9xufbJ" opacity="1" fill="#7a3e65" fill-opacity="1"></use><g><use xlink:href="#bZ9xufbJ" opacity="1" fill-opacity="0" stroke="#000000" stroke-width="1" stroke-opacity="0"></use></g></g><g><use xlink:href="#b12gccaNUf" opacity="1" fill="#cfb2c1" fill-opacity="1"></use><g><use xlink:href="#b12gccaNUf" opacity="1" fill-opacity="0" stroke="#000000" stroke-width="1" stroke-opacity="0"></use></g></g><g><use xlink:href="#d2OcFu2GiV" opacity="1" fill="#512843" fill-opacity="1"></use><g><use xlink:href="#d2OcFu2GiV" opacity="1" fill-opacity="0" stroke="#000000" stroke-width="1" stroke-opacity="0"></use></g></g><g><use xlink:href="#c1mr9PmaF0" opacity="1" fill="#c17b9e" fill-opacity="1"></use><g><use xlink:href="#c1mr9PmaF0" opacity="1" fill-opacity="0" stroke="#000000" stroke-width="1" stroke-opacity="0"></use></g></g><g><use xlink:href="#bSkJu1Gwb" opacity="1" fill="#7a3e65" fill-opacity="1"></use><g><use xlink:href="#bSkJu1Gwb" opacity="1" fill-opacity="0" stroke="#000000" stroke-width="1" stroke-opacity="0"></use></g></g><g><use xlink:href="#aG1TfPwUb" opacity="1" fill="#c17b9e" fill-opacity="1"></use><g><use xlink:href="#aG1TfPwUb" opacity="1" fill-opacity="0" stroke="#000000" stroke-width="1" stroke-opacity="0"></use></g></g><g><use xlink:href="#b147TQRfNH" opacity="1" fill="#7a3e65" fill-opacity="1"></use><g><use xlink:href="#b147TQRfNH" opacity="1" fill-opacity="0" stroke="#000000" stroke-width="1" stroke-opacity="0"></use></g></g><g><use xlink:href="#fk09e2vlo" opacity="1" fill="#c17b9e" fill-opacity="1"></use><g><use xlink:href="#fk09e2vlo" opacity="1" fill-opacity="0" stroke="#000000" stroke-width="1" stroke-opacity="0"></use></g></g></g></g></svg>